<svg width="1920" height="1080" viewBox="0 0 1920 1080" fill="none" xmlns="http://www.w3.org/2000/svg">
<path opacity="0.6" d="M1905.8 641.654C1888.63 607.443 1889.14 573.101 1885.79 536.279C1880.62 480.392 1848.35 435.604 1808.33 396.692C1772.7 353.863 1717.57 323.439 1671.61 293.667C1640.24 273.297 1605.64 256.322 1575.95 233.21C1540.31 205.528 1516.56 166.224 1515.53 120.131C1514.24 64.1132 1553.09 23.765 1599.96 0H1192.77C1192.77 0 1275.79 18.2807 1291.02 105.898C1295.67 132.666 1305.22 168.705 1324.46 188.553C1338.66 203.308 1374.93 210.751 1375.58 233.21C1376.1 252.144 1352.73 261.806 1339.04 269.641C1302.25 290.533 1261.33 302.155 1226.73 327.356C1173.41 366.398 1123.45 429.728 1101.37 493.058C1074.13 571.273 1095.04 666.333 1112.21 744.679C1122.67 792.078 1133.65 843.003 1115.31 887.791C1097.5 931.143 1055.67 959.217 1013.58 978.934C932.893 1016.54 841.231 1035.6 771 1080H1850.67C1888.89 1080 1920 1048.66 1920 1009.88V664.636C1914.58 657.454 1909.8 649.88 1905.8 641.654Z" fill="url(#paint0_linear_25_2)"/>
<path opacity="0.6" d="M70.6665 379.404C54.0391 358.77 39.3416 336.652 29.5433 309.487C20.1904 283.51 12.1736 256.196 0 232V847C99.616 831.413 168.353 750.957 183.05 652.539C192.403 589.748 179.339 527.699 146.381 473.517C124.409 437.891 95.4592 410.429 70.6665 379.404Z" fill="url(#paint1_linear_25_2)"/>
<defs>
<linearGradient id="paint0_linear_25_2" x1="1345.5" y1="0" x2="1345.5" y2="1080" gradientUnits="userSpaceOnUse">
<stop stop-color="#252431"/>
<stop offset="1" stop-color="#282938"/>
</linearGradient>
<linearGradient id="paint1_linear_25_2" x1="93" y1="232" x2="93" y2="847" gradientUnits="userSpaceOnUse">
<stop stop-color="#252431"/>
<stop offset="1" stop-color="#282938"/>
</linearGradient>
</defs>
</svg>
