<svg width="1389" height="1080" viewBox="0 0 1389 1080" fill="none" xmlns="http://www.w3.org/2000/svg">
<path d="M528 266.856C518.516 145.951 367.5 1 367.5 1H1388C1388 1 1374.07 139.604 1334 216.6C1247.04 383.703 970.565 290.886 926 473.913C897.431 591.243 1006.76 655.317 994.5 775.451C981.076 906.995 844.5 1079 844.5 1079H174C174 1079 525.274 945.421 561.5 750.323C583.802 630.213 489.682 566.832 494.5 444.764C497.288 374.121 533.529 337.338 528 266.856Z" fill="#22232D" stroke="#22232D"/>
<path opacity="0.6" d="M70.6665 380.404C54.0391 359.77 39.3416 337.652 29.5433 310.487C20.1904 284.51 12.1736 257.196 0 233V848C99.616 832.413 168.353 751.957 183.05 653.539C192.403 590.748 179.339 528.698 146.381 474.517C124.409 438.89 95.4592 411.428 70.6665 380.404Z" fill="#252431"/>
</svg>
